<svg width="400" height="277" viewBox="0 0 400 277" fill="none" xmlns="http://www.w3.org/2000/svg">
<path d="M109.301 166.286C87.1518 143.787 74.156 113.858 72.8382 82.3125C71.5204 50.7674 81.9745 19.8585 102.17 -4.41019C122.366 -28.6789 150.861 -44.5749 182.12 -49.0104C213.379 -53.4459 245.172 -46.1042 271.321 -28.4115C297.471 -10.7188 316.111 16.0618 323.62 46.7283C331.13 77.3948 326.973 109.758 311.957 137.531C296.941 165.304 272.138 186.505 242.366 197.015C212.594 207.524 179.978 206.593 150.855 194.402L160.684 170.921C183.983 180.674 210.075 181.42 233.893 173.012C257.71 164.604 277.553 147.643 289.566 125.425C301.578 103.206 304.904 77.3159 298.896 52.7827C292.889 28.2495 277.977 6.82497 257.057 -7.32919C236.137 -21.4833 210.704 -27.3567 185.696 -23.8083C160.688 -20.2599 137.892 -7.54309 121.736 11.8719C105.58 31.2868 97.2163 56.0139 98.2705 81.25C99.3248 106.486 109.721 130.429 127.441 148.429L109.301 166.286Z" fill="#181818"/>
<path d="M290.909 76.9997C290.909 98.0067 283.634 118.366 270.321 134.615C257.007 150.864 238.477 162.002 217.88 166.133C197.283 170.265 175.891 167.136 157.341 157.278C138.79 147.42 124.226 131.442 116.124 112.06C108.022 92.6785 106.883 71.089 112.9 50.962C118.916 30.835 131.718 13.4128 149.128 1.65736C166.538 -10.0981 187.482 -15.4614 208.399 -13.5206C229.316 -11.5799 248.916 -2.45498 263.866 12.3029L246.303 30.0945C235.464 19.3951 221.254 12.7795 206.089 11.3724C190.924 9.96541 175.74 13.8538 163.118 22.3765C150.496 30.8992 141.215 43.5303 136.852 58.1223C132.49 72.7144 133.316 88.3669 139.19 102.419C145.064 116.471 155.623 128.055 169.072 135.201C182.521 142.348 198.03 144.617 212.963 141.621C227.896 138.626 241.33 130.552 250.982 118.771C260.635 106.99 265.909 92.2298 265.909 76.9997H290.909Z" fill="#181818"/>
<path d="M351.083 139.855C338.651 169.737 317.638 195.261 290.7 213.199C263.762 231.138 232.11 240.686 199.746 240.636C167.382 240.586 135.759 230.939 108.877 212.917C81.9954 194.895 61.0614 169.306 48.7226 139.386L72.1706 129.716C82.5969 154.998 100.286 176.621 123.001 191.85C145.717 207.079 172.438 215.23 199.785 215.272C227.133 215.315 253.879 207.247 276.642 192.088C299.404 176.93 317.16 155.362 327.665 130.113L351.083 139.855Z" fill="#181818"/>
<path d="M84.2916 -38.7087C103.255 -57.6719 126.588 -71.6838 152.238 -79.5113C177.889 -87.3389 205.07 -88.7422 231.39 -83.5978C257.71 -78.4535 282.362 -66.919 303.177 -50.0096C323.992 -33.1001 340.333 -11.3338 350.76 13.374L327.392 23.236C318.581 2.35788 304.774 -16.0346 287.185 -30.3231C269.596 -44.6117 248.765 -54.3582 226.524 -58.7052C204.284 -63.0522 181.316 -61.8664 159.641 -55.2521C137.967 -48.6379 118.25 -36.7979 102.226 -20.7739L84.2916 -38.7087Z" fill="#181818"/>
<path d="M341.421 218.421C322.85 236.993 300.802 251.725 276.537 261.776C252.272 271.827 226.264 277 200 277V252C222.981 252 245.738 247.473 266.97 238.679C288.202 229.884 307.493 216.994 323.744 200.744L341.421 218.421Z" fill="#181818"/>
<path d="M122.577 261.406C98.4548 251.279 76.5543 236.517 58.116 217.957L75.8515 200.338C91.985 216.577 111.148 229.494 132.255 238.355L122.577 261.406Z" fill="#181818"/>
<path d="M224.439 77L283.637 77L283.637 102.436L224.439 102.436L224.439 77Z" fill="#181818"/>
</svg>
