<svg width="572" height="548" viewBox="0 0 572 548" fill="none" xmlns="http://www.w3.org/2000/svg">
<path d="M163.952 433.93C130.728 400.18 111.234 355.286 109.257 307.969C107.281 260.651 122.962 214.288 153.255 177.885C183.548 141.482 226.291 117.638 273.18 110.984C320.069 104.331 367.758 115.344 406.982 141.883C446.206 168.422 474.166 208.593 485.43 254.592C496.695 300.592 490.459 349.137 467.935 390.797C445.412 432.456 408.207 464.257 363.549 480.022C318.891 495.787 269.968 494.39 226.282 476.102L241.026 440.882C275.974 455.512 315.113 456.629 350.839 444.018C386.566 431.406 416.329 405.965 434.348 372.637C452.368 339.309 457.356 300.474 448.344 263.674C439.333 226.874 416.965 194.737 385.586 173.506C354.206 152.275 316.055 143.465 278.544 148.788C241.033 154.11 206.839 173.185 182.604 202.308C158.37 231.43 145.824 268.521 147.406 306.375C148.987 344.229 164.582 380.144 191.161 407.144L163.952 433.93Z" fill="#181818"/>
<path d="M436.364 300C436.364 331.51 425.451 362.048 405.481 386.422C385.51 410.797 357.715 427.502 326.82 433.7C295.924 439.897 263.836 435.204 236.011 420.417C208.185 405.63 186.339 381.664 174.186 352.591C162.033 323.518 160.324 291.133 169.349 260.943C178.375 230.752 197.577 204.619 223.692 186.986C249.807 169.353 281.222 161.308 312.598 164.219C343.974 167.13 373.373 180.818 395.798 202.954L369.454 229.642C353.196 213.593 331.881 203.669 309.134 201.559C286.386 199.448 263.61 205.281 244.677 218.065C225.743 230.849 211.822 249.795 205.278 271.684C198.735 293.572 199.974 317.05 208.785 338.128C217.596 359.206 233.434 376.582 253.608 387.302C273.782 398.022 297.045 401.425 319.444 396.932C341.843 392.439 361.995 380.327 376.474 362.656C390.952 344.985 398.864 322.845 398.864 300H436.364Z" fill="#181818"/>
<path d="M526.624 394.283C507.977 439.105 476.457 477.391 436.05 504.299C395.644 531.207 348.165 545.529 299.619 545.454C251.073 545.378 203.639 530.909 163.316 503.875C122.993 476.842 91.5922 438.458 73.084 393.578L108.256 379.074C123.895 416.997 150.429 449.431 184.502 472.275C218.575 495.118 258.656 507.344 299.678 507.408C340.7 507.472 380.819 495.37 414.962 472.632C449.106 449.895 475.74 417.543 491.498 379.669L526.624 394.283Z" fill="#181818"/>
<path d="M126.437 126.437C154.882 97.992 189.882 76.9742 228.358 65.2329C266.833 53.4915 307.605 51.3866 347.085 59.1031C386.565 66.8197 423.543 84.1213 454.766 109.486C485.989 134.85 510.499 167.499 526.14 204.561L491.089 219.354C477.872 188.037 457.16 160.448 430.777 139.015C404.394 117.582 373.147 102.963 339.786 96.442C306.426 89.9215 271.974 91.7002 239.462 101.622C206.951 111.543 177.376 129.303 153.34 153.339L126.437 126.437Z" fill="#181818"/>
<path d="M512.132 512.132C484.274 539.99 451.203 562.087 414.805 577.164C378.407 592.24 339.397 600 300 600V562.5C334.472 562.5 368.606 555.71 400.454 542.518C432.302 529.327 461.24 509.991 485.616 485.616L512.132 512.132Z" fill="#181818"/>
<path d="M298.779 0.00248448C378.343 -0.321327 454.777 30.9749 511.267 87.0064L484.859 113.631C435.43 64.603 368.55 37.2188 298.932 37.5022L298.779 0.00248448Z" fill="#181818"/>
<path d="M183.865 576.609C147.682 561.418 114.831 539.275 87.174 511.436L113.777 485.006C137.978 509.366 166.722 528.741 198.382 542.033L183.865 576.609Z" fill="#181818"/>
<path d="M336.658 300L425.455 300L425.455 338.155L336.658 338.155L336.658 300Z" fill="#181818"/>
</svg>
