<svg width="156" height="117" viewBox="0 0 156 117" fill="none" xmlns="http://www.w3.org/2000/svg">
<rect x="29.25" y="9.75" width="9.75" height="9.75" fill="#181818"/>
<rect x="19.5" y="9.75" width="9.75" height="9.75" fill="#3C3C3C"/>
<rect x="19.5" width="9.75" height="9.75" fill="#181818"/>
<rect x="9.75" y="9.75" width="9.75" height="9.75" fill="#181818"/>
<rect x="9.75" width="9.75" height="9.75" fill="#181818"/>
<rect x="19.5" y="19.5" width="9.75" height="9.75" fill="#3C3C3C"/>
<rect x="19.5" y="29.25" width="9.75" height="9.75" fill="#3C3C3C"/>
<rect x="19.5" y="39" width="9.75" height="9.75" fill="#3C3C3C"/>
<rect x="19.5" y="48.75" width="9.75" height="9.75" fill="#181818"/>
<rect x="19.5" y="58.5" width="9.75" height="9.75" fill="#3C3C3C"/>
<rect x="19.5" y="68.25" width="9.75" height="9.75" fill="#3C3C3C"/>
<rect x="19.5" y="78" width="9.75" height="9.75" fill="#181818"/>
<rect x="19.5" y="87.75" width="9.75" height="9.75" fill="#181818"/>
<rect x="19.5" y="97.5" width="9.75" height="9.75" fill="#181818"/>
<rect x="19.5" y="107.25" width="9.75" height="9.75" fill="#181818"/>
<rect x="29.25" y="19.5" width="9.75" height="9.75" fill="#3C3C3C"/>
<rect x="48.75" y="19.5" width="9.75" height="9.75" fill="#181818"/>
<rect x="68.25" y="19.5" width="9.75" height="9.75" fill="#3C3C3C"/>
<rect x="68.25" y="9.75" width="9.75" height="9.75" fill="#181818"/>
<rect x="29.25" y="29.25" width="9.75" height="9.75" fill="#3C3C3C"/>
<rect x="48.75" y="29.25" width="9.75" height="9.75" fill="#3C3C3C"/>
<rect x="68.25" y="29.25" width="9.75" height="9.75" fill="#3C3C3C"/>
<rect x="29.25" y="48.75" width="9.75" height="9.75" fill="#3C3C3C"/>
<rect x="48.75" y="48.75" width="9.75" height="9.75" fill="#3C3C3C"/>
<rect x="68.25" y="48.75" width="9.75" height="9.75" fill="#3C3C3C"/>
<rect x="29.25" y="58.5" width="9.75" height="9.75" fill="#3C3C3C"/>
<rect x="48.75" y="58.5" width="9.75" height="9.75" fill="#3C3C3C"/>
<rect x="68.25" y="58.5" width="9.75" height="9.75" fill="#3C3C3C"/>
<rect x="29.25" y="39" width="9.75" height="9.75" fill="#3C3C3C"/>
<rect x="48.75" y="39" width="9.75" height="9.75" fill="#3C3C3C"/>
<rect x="68.25" y="39" width="9.75" height="9.75" fill="#3C3C3C"/>
<rect x="29.25" y="68.25" width="9.75" height="9.75" fill="#3C3C3C"/>
<rect x="29.25" y="78" width="9.75" height="9.75" fill="#181818"/>
<rect x="29.25" y="97.5" width="9.75" height="9.75" fill="#3C3C3C"/>
<rect x="29.25" y="87.75" width="9.75" height="9.75" fill="#3C3C3C"/>
<rect x="29.25" y="107.25" width="9.75" height="9.75" fill="#3C3C3C"/>
<rect x="48.75" y="68.25" width="9.75" height="9.75" fill="#3C3C3C"/>
<rect x="48.75" y="97.5" width="9.75" height="9.75" fill="#3C3C3C"/>
<rect x="48.75" y="78" width="9.75" height="9.75" fill="#181818"/>
<rect x="48.75" y="87.75" width="9.75" height="9.75" fill="#3C3C3C"/>
<rect x="48.75" y="107.25" width="9.75" height="9.75" fill="#3C3C3C"/>
<rect x="68.25" y="97.5" width="9.75" height="9.75" fill="#181818"/>
<rect x="68.25" y="68.25" width="9.75" height="9.75" fill="#3C3C3C"/>
<rect x="68.25" y="78" width="9.75" height="9.75" fill="#181818"/>
<rect x="68.25" y="87.75" width="9.75" height="9.75" fill="#3C3C3C"/>
<rect x="68.25" y="107.25" width="9.75" height="9.75" fill="#181818"/>
<rect x="39" y="19.5" width="9.75" height="9.75" fill="#181818"/>
<rect x="78" y="19.5" width="9.75" height="9.75" fill="#3C3C3C"/>
<rect x="87.75" y="19.5" width="9.75" height="9.75" fill="#181818"/>
<rect x="58.5" y="19.5" width="9.75" height="9.75" fill="#181818"/>
<rect x="78" y="9.75" width="9.75" height="9.75" fill="#3C3C3C"/>
<rect x="87.75" y="9.75" width="9.75" height="9.75" fill="#181818"/>
<rect x="78" width="9.75" height="9.75" fill="#181818"/>
<rect x="87.75" width="9.75" height="9.75" fill="#181818"/>
<rect x="39" y="29.25" width="9.75" height="9.75" fill="#3C3C3C"/>
<rect x="78" y="29.25" width="9.75" height="9.75" fill="#3C3C3C"/>
<rect x="58.5" y="29.25" width="9.75" height="9.75" fill="#3C3C3C"/>
<rect x="87.75" y="29.25" width="9.75" height="9.75" fill="#3C3C3C"/>
<rect x="97.5" y="29.25" width="9.75" height="9.75" fill="#181818"/>
<rect x="78" y="48.75" width="9.75" height="9.75" fill="#3C3C3C"/>
<rect x="39" y="48.75" width="9.75" height="9.75" fill="#3C3C3C"/>
<rect x="58.5" y="48.75" width="9.75" height="9.75" fill="#181818"/>
<rect x="78" y="58.5" width="9.75" height="9.75" fill="#3C3C3C"/>
<rect x="87.75" y="48.75" width="9.75" height="9.75" fill="#3C3C3C"/>
<rect x="97.5" y="48.75" width="9.75" height="9.75" fill="#181818"/>
<rect x="39" y="58.5" width="9.75" height="9.75" fill="#3C3C3C"/>
<rect x="78" y="39" width="9.75" height="9.75" fill="#3C3C3C"/>
<rect x="58.5" y="58.5" width="9.75" height="9.75" fill="#3C3C3C"/>
<rect x="87.75" y="58.5" width="9.75" height="9.75" fill="#3C3C3C"/>
<rect x="78" y="97.5" width="9.75" height="9.75" fill="#3C3C3C"/>
<rect x="87.75" y="97.5" width="9.75" height="9.75" fill="#3C3C3C"/>
<rect x="97.5" y="97.5" width="9.75" height="9.75" fill="#3C3C3C"/>
<rect x="97.5" y="58.5" width="9.75" height="9.75" fill="#181818"/>
<rect x="78" y="68.25" width="9.75" height="9.75" fill="#181818"/>
<rect x="78" y="87.75" width="9.75" height="9.75" fill="#181818"/>
<rect x="78" y="107.25" width="9.75" height="9.75" fill="#181818"/>
<rect x="78" y="78" width="9.75" height="9.75" fill="#3C3C3C"/>
<rect x="87.75" y="87.75" width="9.75" height="9.75" fill="#3C3C3C"/>
<rect x="97.5" y="87.75" width="9.75" height="9.75" fill="#3C3C3C"/>
<rect x="107.25" y="87.75" width="9.75" height="9.75" fill="#181818"/>
<rect x="87.75" y="107.25" width="9.75" height="9.75" fill="#181818"/>
<rect x="97.5" y="107.25" width="9.75" height="9.75" fill="#181818"/>
<rect x="39" y="39" width="9.75" height="9.75" fill="#3C3C3C"/>
<rect x="58.5" y="39" width="9.75" height="9.75" fill="#3C3C3C"/>
<rect x="39" y="97.5" width="9.75" height="9.75" fill="#3C3C3C"/>
<rect x="87.75" y="39" width="9.75" height="9.75" fill="#3C3C3C"/>
<rect x="97.5" y="39" width="9.75" height="9.75" fill="#181818"/>
<rect x="39" y="68.25" width="9.75" height="9.75" fill="#3C3C3C"/>
<rect x="58.5" y="97.5" width="9.75" height="9.75" fill="#3C3C3C"/>
<rect x="39" y="78" width="9.75" height="9.75" fill="#181818"/>
<rect x="39" y="87.75" width="9.75" height="9.75" fill="#3C3C3C"/>
<rect x="39" y="107.25" width="9.75" height="9.75" fill="#181818"/>
<rect x="58.5" y="68.25" width="9.75" height="9.75" fill="#3C3C3C"/>
<rect x="58.5" y="78" width="9.75" height="9.75" fill="#181818"/>
<rect x="58.5" y="87.75" width="9.75" height="9.75" fill="#3C3C3C"/>
<rect x="58.5" y="107.25" width="9.75" height="9.75" fill="#181818"/>
<rect x="87.75" y="68.25" width="9.75" height="9.75" fill="#181818"/>
<rect x="87.75" y="78" width="9.75" height="9.75" fill="#3C3C3C"/>
<rect x="97.5" y="68.25" width="9.75" height="9.75" fill="#181818"/>
<rect x="107.25" y="97.5" width="9.75" height="9.75" fill="#3C3C3C"/>
<rect x="117" y="97.5" width="9.75" height="9.75" fill="#3C3C3C"/>
<rect x="126.75" y="97.5" width="9.75" height="9.75" fill="#3C3C3C"/>
<rect x="136.5" y="97.5" width="9.75" height="9.75" fill="#181818"/>
<rect x="117" y="87.75" width="9.75" height="9.75" fill="#181818"/>
<rect x="126.75" y="87.75" width="9.75" height="9.75" fill="#3C3C3C"/>
<rect x="126.75" y="78" width="9.75" height="9.75" fill="#181818"/>
<rect x="126.75" y="68.25" width="9.75" height="9.75" fill="#181818"/>
<rect x="126.75" y="58.5" width="9.75" height="9.75" fill="#181818"/>
<rect x="136.5" y="87.75" width="9.75" height="9.75" fill="#3C3C3C"/>
<rect x="136.5" y="78" width="9.75" height="9.75" fill="#3C3C3C"/>
<rect x="136.5" y="68.25" width="9.75" height="9.75" fill="#3C3C3C"/>
<rect x="136.5" y="58.5" width="9.75" height="9.75" fill="#181818"/>
<rect x="146.25" y="87.75" width="9.75" height="9.75" fill="#181818"/>
<rect x="146.25" y="78" width="9.75" height="9.75" fill="#181818"/>
<rect x="146.25" y="68.25" width="9.75" height="9.75" fill="#181818"/>
<rect x="97.5" y="78" width="9.75" height="9.75" fill="#181818"/>
<rect x="107.25" y="107.25" width="9.75" height="9.75" fill="#181818"/>
<rect x="117" y="107.25" width="9.75" height="9.75" fill="#181818"/>
<rect x="126.75" y="107.25" width="9.75" height="9.75" fill="#181818"/>
<rect x="9.75" y="19.5" width="9.75" height="9.75" fill="#181818"/>
<rect x="9.75" y="48.75" width="9.75" height="9.75" fill="#3C3C3C"/>
<rect x="9.75" y="29.25" width="9.75" height="9.75" fill="#3C3C3C"/>
<rect x="9.75" y="58.5" width="9.75" height="9.75" fill="#3C3C3C"/>
<rect x="9.75" y="39" width="9.75" height="9.75" fill="#3C3C3C"/>
<rect y="48.75" width="9.75" height="9.75" fill="#181818"/>
<rect x="9.75" y="68.25" width="9.75" height="9.75" fill="#181818"/>
<rect y="29.25" width="9.75" height="9.75" fill="#181818"/>
<rect y="39" width="9.75" height="9.75" fill="#181818"/>
<rect y="58.5" width="9.75" height="9.75" fill="#181818"/>
</svg>
