<svg width="100" height="129" viewBox="0 0 100 129" fill="none" xmlns="http://www.w3.org/2000/svg">
<mask id="mask0_463_9905" style="mask-type:alpha" maskUnits="userSpaceOnUse" x="0" y="0" width="100" height="129">
<path d="M0 0H85C93.2843 0 100 6.71573 100 15V114C100 122.284 93.2843 129 85 129H0V0Z" fill="#1E1E1E"/>
</mask>
<g mask="url(#mask0_463_9905)">
<rect y="45" width="6.5" height="6.5" fill="#3C3C3C"/>
<rect x="6.5" y="45" width="6.5" height="6.5" fill="#181818"/>
<rect y="38.5" width="6.5" height="6.5" fill="#3C3C3C"/>
<rect x="6.5" y="38.5" width="6.5" height="6.5" fill="#181818"/>
<rect y="32" width="6.5" height="6.5" fill="#181818"/>
<rect x="6.5" y="32" width="6.5" height="6.5" fill="#181818"/>
<rect y="51.5" width="6.5" height="6.5" fill="#3C3C3C"/>
<rect x="6.5" y="51.5" width="6.5" height="6.5" fill="#3C3C3C"/>
<rect x="13" y="51.5" width="6.5" height="6.5" fill="#181818"/>
<rect y="64.5" width="6.5" height="6.5" fill="#3C3C3C"/>
<rect y="71" width="6.5" height="6.5" fill="#3C3C3C"/>
<rect x="6.5" y="64.5" width="6.5" height="6.5" fill="#3C3C3C"/>
<rect x="13" y="64.5" width="6.5" height="6.5" fill="#181818"/>
<rect y="58" width="6.5" height="6.5" fill="#3C3C3C"/>
<rect x="6.5" y="71" width="6.5" height="6.5" fill="#3C3C3C"/>
<rect y="97" width="6.5" height="6.5" fill="#3C3C3C"/>
<rect x="6.5" y="97" width="6.5" height="6.5" fill="#3C3C3C"/>
<rect x="13" y="97" width="6.5" height="6.5" fill="#3C3C3C"/>
<rect x="13" y="71" width="6.5" height="6.5" fill="#181818"/>
<rect y="77.5" width="6.5" height="6.5" fill="#181818"/>
<rect y="90.5" width="6.5" height="6.5" fill="#181818"/>
<rect y="103.5" width="6.5" height="6.5" fill="#181818"/>
<rect y="84" width="6.5" height="6.5" fill="#3C3C3C"/>
<rect x="6.5" y="90.5" width="6.5" height="6.5" fill="#3C3C3C"/>
<rect x="13" y="90.5" width="6.5" height="6.5" fill="#3C3C3C"/>
<rect x="19.5" y="90.5" width="6.5" height="6.5" fill="#181818"/>
<rect x="6.5" y="103.5" width="6.5" height="6.5" fill="#181818"/>
<rect x="13" y="103.5" width="6.5" height="6.5" fill="#181818"/>
<rect x="6.5" y="58" width="6.5" height="6.5" fill="#3C3C3C"/>
<rect x="13" y="58" width="6.5" height="6.5" fill="#181818"/>
<rect x="6.5" y="77.5" width="6.5" height="6.5" fill="#181818"/>
<rect x="6.5" y="84" width="6.5" height="6.5" fill="#3C3C3C"/>
<rect x="13" y="77.5" width="6.5" height="6.5" fill="#181818"/>
<rect x="19.5" y="97" width="6.5" height="6.5" fill="#3C3C3C"/>
<rect x="26" y="97" width="6.5" height="6.5" fill="#3C3C3C"/>
<rect x="32.5" y="97" width="6.5" height="6.5" fill="#3C3C3C"/>
<rect x="39" y="97" width="6.5" height="6.5" fill="#181818"/>
<rect x="26" y="90.5" width="6.5" height="6.5" fill="#181818"/>
<rect x="32.5" y="90.5" width="6.5" height="6.5" fill="#3C3C3C"/>
<rect x="32.5" y="84" width="6.5" height="6.5" fill="#181818"/>
<rect x="32.5" y="77.5" width="6.5" height="6.5" fill="#181818"/>
<rect x="32.5" y="71" width="6.5" height="6.5" fill="#181818"/>
<rect x="39" y="90.5" width="6.5" height="6.5" fill="#3C3C3C"/>
<rect x="39" y="84" width="6.5" height="6.5" fill="#3C3C3C"/>
<rect x="39" y="77.5" width="6.5" height="6.5" fill="#3C3C3C"/>
<rect x="39" y="71" width="6.5" height="6.5" fill="#181818"/>
<rect x="45.5" y="90.5" width="6.5" height="6.5" fill="#181818"/>
<rect x="45.5" y="84" width="6.5" height="6.5" fill="#181818"/>
<rect x="45.5" y="77.5" width="6.5" height="6.5" fill="#181818"/>
<rect x="13" y="84" width="6.5" height="6.5" fill="#181818"/>
<rect x="19.5" y="103.5" width="6.5" height="6.5" fill="#181818"/>
<rect x="26" y="103.5" width="6.5" height="6.5" fill="#181818"/>
<rect x="32.5" y="103.5" width="6.5" height="6.5" fill="#181818"/>
</g>
</svg>
