<svg width="104" height="78" viewBox="0 0 104 78" fill="none" xmlns="http://www.w3.org/2000/svg">
<rect x="19.5" y="6.5" width="6.5" height="6.5" fill="#999999"/>
<rect x="13" y="6.5" width="6.5" height="6.5" fill="white"/>
<rect x="13" width="6.5" height="6.5" fill="#999999"/>
<rect x="6.5" y="6.5" width="6.5" height="6.5" fill="#999999"/>
<rect x="6.5" width="6.5" height="6.5" fill="#999999"/>
<rect x="13" y="13" width="6.5" height="6.5" fill="white"/>
<rect x="13" y="19.5" width="6.5" height="6.5" fill="white"/>
<rect x="13" y="26" width="6.5" height="6.5" fill="white"/>
<rect x="13" y="32.5" width="6.5" height="6.5" fill="#999999"/>
<rect x="13" y="39" width="6.5" height="6.5" fill="white"/>
<rect x="13" y="45.5" width="6.5" height="6.5" fill="white"/>
<rect x="13" y="52" width="6.5" height="6.5" fill="#999999"/>
<rect x="13" y="58.5" width="6.5" height="6.5" fill="#999999"/>
<rect x="13" y="65" width="6.5" height="6.5" fill="#999999"/>
<rect x="13" y="71.5" width="6.5" height="6.5" fill="#999999"/>
<rect x="19.5" y="13" width="6.5" height="6.5" fill="white"/>
<rect x="32.5" y="13" width="6.5" height="6.5" fill="#999999"/>
<rect x="45.5" y="13" width="6.5" height="6.5" fill="white"/>
<rect x="45.5" y="6.5" width="6.5" height="6.5" fill="#999999"/>
<rect x="19.5" y="19.5" width="6.5" height="6.5" fill="white"/>
<rect x="32.5" y="19.5" width="6.5" height="6.5" fill="white"/>
<rect x="45.5" y="19.5" width="6.5" height="6.5" fill="white"/>
<rect x="19.5" y="32.5" width="6.5" height="6.5" fill="white"/>
<rect x="32.5" y="32.5" width="6.5" height="6.5" fill="white"/>
<rect x="45.5" y="32.5" width="6.5" height="6.5" fill="white"/>
<rect x="19.5" y="39" width="6.5" height="6.5" fill="white"/>
<rect x="32.5" y="39" width="6.5" height="6.5" fill="white"/>
<rect x="45.5" y="39" width="6.5" height="6.5" fill="white"/>
<rect x="19.5" y="26" width="6.5" height="6.5" fill="white"/>
<rect x="32.5" y="26" width="6.5" height="6.5" fill="white"/>
<rect x="45.5" y="26" width="6.5" height="6.5" fill="white"/>
<rect x="19.5" y="45.5" width="6.5" height="6.5" fill="white"/>
<rect x="19.5" y="52" width="6.5" height="6.5" fill="#999999"/>
<rect x="19.5" y="65" width="6.5" height="6.5" fill="white"/>
<rect x="19.5" y="58.5" width="6.5" height="6.5" fill="white"/>
<rect x="19.5" y="71.5" width="6.5" height="6.5" fill="white"/>
<rect x="32.5" y="45.5" width="6.5" height="6.5" fill="white"/>
<rect x="32.5" y="65" width="6.5" height="6.5" fill="white"/>
<rect x="32.5" y="52" width="6.5" height="6.5" fill="#999999"/>
<rect x="32.5" y="58.5" width="6.5" height="6.5" fill="white"/>
<rect x="32.5" y="71.5" width="6.5" height="6.5" fill="white"/>
<rect x="45.5" y="65" width="6.5" height="6.5" fill="#999999"/>
<rect x="45.5" y="45.5" width="6.5" height="6.5" fill="white"/>
<rect x="45.5" y="52" width="6.5" height="6.5" fill="#999999"/>
<rect x="45.5" y="58.5" width="6.5" height="6.5" fill="white"/>
<rect x="45.5" y="71.5" width="6.5" height="6.5" fill="#999999"/>
<rect x="26" y="13" width="6.5" height="6.5" fill="#999999"/>
<rect x="52" y="13" width="6.5" height="6.5" fill="white"/>
<rect x="58.5" y="13" width="6.5" height="6.5" fill="#999999"/>
<rect x="39" y="13" width="6.5" height="6.5" fill="#999999"/>
<rect x="52" y="6.5" width="6.5" height="6.5" fill="white"/>
<rect x="58.5" y="6.5" width="6.5" height="6.5" fill="#999999"/>
<rect x="52" width="6.5" height="6.5" fill="#999999"/>
<rect x="58.5" width="6.5" height="6.5" fill="#999999"/>
<rect x="26" y="19.5" width="6.5" height="6.5" fill="white"/>
<rect x="52" y="19.5" width="6.5" height="6.5" fill="white"/>
<rect x="39" y="19.5" width="6.5" height="6.5" fill="white"/>
<rect x="58.5" y="19.5" width="6.5" height="6.5" fill="white"/>
<rect x="65" y="19.5" width="6.5" height="6.5" fill="#999999"/>
<rect x="52" y="32.5" width="6.5" height="6.5" fill="white"/>
<rect x="26" y="32.5" width="6.5" height="6.5" fill="white"/>
<rect x="39" y="32.5" width="6.5" height="6.5" fill="#999999"/>
<rect x="52" y="39" width="6.5" height="6.5" fill="white"/>
<rect x="58.5" y="32.5" width="6.5" height="6.5" fill="white"/>
<rect x="65" y="32.5" width="6.5" height="6.5" fill="#999999"/>
<rect x="26" y="39" width="6.5" height="6.5" fill="white"/>
<rect x="52" y="26" width="6.5" height="6.5" fill="white"/>
<rect x="39" y="39" width="6.5" height="6.5" fill="white"/>
<rect x="58.5" y="39" width="6.5" height="6.5" fill="white"/>
<rect x="52" y="65" width="6.5" height="6.5" fill="white"/>
<rect x="58.5" y="65" width="6.5" height="6.5" fill="white"/>
<rect x="65" y="65" width="6.5" height="6.5" fill="white"/>
<rect x="65" y="39" width="6.5" height="6.5" fill="#999999"/>
<rect x="52" y="45.5" width="6.5" height="6.5" fill="#999999"/>
<rect x="52" y="58.5" width="6.5" height="6.5" fill="#999999"/>
<rect x="52" y="71.5" width="6.5" height="6.5" fill="#999999"/>
<rect x="52" y="52" width="6.5" height="6.5" fill="white"/>
<rect x="58.5" y="58.5" width="6.5" height="6.5" fill="white"/>
<rect x="65" y="58.5" width="6.5" height="6.5" fill="white"/>
<rect x="71.5" y="58.5" width="6.5" height="6.5" fill="#999999"/>
<rect x="58.5" y="71.5" width="6.5" height="6.5" fill="#999999"/>
<rect x="65" y="71.5" width="6.5" height="6.5" fill="#999999"/>
<rect x="26" y="26" width="6.5" height="6.5" fill="white"/>
<rect x="39" y="26" width="6.5" height="6.5" fill="white"/>
<rect x="26" y="65" width="6.5" height="6.5" fill="white"/>
<rect x="58.5" y="26" width="6.5" height="6.5" fill="white"/>
<rect x="65" y="26" width="6.5" height="6.5" fill="#999999"/>
<rect x="26" y="45.5" width="6.5" height="6.5" fill="white"/>
<rect x="39" y="65" width="6.5" height="6.5" fill="white"/>
<rect x="26" y="52" width="6.5" height="6.5" fill="#999999"/>
<rect x="26" y="58.5" width="6.5" height="6.5" fill="white"/>
<rect x="26" y="71.5" width="6.5" height="6.5" fill="#999999"/>
<rect x="39" y="45.5" width="6.5" height="6.5" fill="white"/>
<rect x="39" y="52" width="6.5" height="6.5" fill="#999999"/>
<rect x="39" y="58.5" width="6.5" height="6.5" fill="white"/>
<rect x="39" y="71.5" width="6.5" height="6.5" fill="#999999"/>
<rect x="58.5" y="45.5" width="6.5" height="6.5" fill="#999999"/>
<rect x="58.5" y="52" width="6.5" height="6.5" fill="white"/>
<rect x="65" y="45.5" width="6.5" height="6.5" fill="#999999"/>
<rect x="71.5" y="65" width="6.5" height="6.5" fill="white"/>
<rect x="78" y="65" width="6.5" height="6.5" fill="white"/>
<rect x="84.5" y="65" width="6.5" height="6.5" fill="white"/>
<rect x="91" y="65" width="6.5" height="6.5" fill="#999999"/>
<rect x="78" y="58.5" width="6.5" height="6.5" fill="#999999"/>
<rect x="84.5" y="58.5" width="6.5" height="6.5" fill="white"/>
<rect x="84.5" y="52" width="6.5" height="6.5" fill="#999999"/>
<rect x="84.5" y="45.5" width="6.5" height="6.5" fill="#999999"/>
<rect x="84.5" y="39" width="6.5" height="6.5" fill="#999999"/>
<rect x="91" y="58.5" width="6.5" height="6.5" fill="white"/>
<rect x="91" y="52" width="6.5" height="6.5" fill="white"/>
<rect x="91" y="45.5" width="6.5" height="6.5" fill="white"/>
<rect x="91" y="39" width="6.5" height="6.5" fill="#999999"/>
<rect x="97.5" y="58.5" width="6.5" height="6.5" fill="#999999"/>
<rect x="97.5" y="52" width="6.5" height="6.5" fill="#999999"/>
<rect x="97.5" y="45.5" width="6.5" height="6.5" fill="#999999"/>
<rect x="65" y="52" width="6.5" height="6.5" fill="#999999"/>
<rect x="71.5" y="71.5" width="6.5" height="6.5" fill="#999999"/>
<rect x="78" y="71.5" width="6.5" height="6.5" fill="#999999"/>
<rect x="84.5" y="71.5" width="6.5" height="6.5" fill="#999999"/>
<rect x="6.5" y="13" width="6.5" height="6.5" fill="#999999"/>
<rect x="6.5" y="32.5" width="6.5" height="6.5" fill="white"/>
<rect x="6.5" y="19.5" width="6.5" height="6.5" fill="white"/>
<rect x="6.5" y="39" width="6.5" height="6.5" fill="white"/>
<rect x="6.5" y="26" width="6.5" height="6.5" fill="white"/>
<rect y="32.5" width="6.5" height="6.5" fill="#999999"/>
<rect x="6.5" y="45.5" width="6.5" height="6.5" fill="#999999"/>
<rect y="19.5" width="6.5" height="6.5" fill="#999999"/>
<rect y="26" width="6.5" height="6.5" fill="#999999"/>
<rect y="39" width="6.5" height="6.5" fill="#999999"/>
</svg>
