<svg width="50" height="50" viewBox="0 0 50 50" fill="none" xmlns="http://www.w3.org/2000/svg">
<path d="M13.6626 36.1604C10.8939 33.3479 9.26945 29.6068 9.10473 25.6637C8.94 21.7205 10.2468 17.8569 12.7712 14.8233C15.2956 11.7897 18.8575 9.80274 22.765 9.24831C26.6724 8.69387 30.6464 9.61157 33.9151 11.8232C37.1838 14.0347 39.5138 17.3823 40.4525 21.2156C41.3912 25.049 40.8716 29.0943 38.9946 32.566C37.1176 36.0376 34.0172 38.6877 30.2957 40.0014C26.5742 41.3151 22.4973 41.1987 18.8568 39.6748L20.0854 36.7398C22.9978 37.9589 26.2594 38.052 29.2366 37.0011C32.2138 35.9501 34.6941 33.83 36.1956 31.0527C37.6972 28.2754 38.1129 25.0391 37.362 21.9724C36.611 18.9058 34.747 16.2277 32.1321 14.4585C29.5171 12.6892 26.3379 11.955 23.212 12.3986C20.086 12.8421 17.2365 14.4317 15.217 16.8586C13.1974 19.2855 12.152 22.3763 12.2838 25.5309C12.4156 28.6854 13.7151 31.6783 15.9301 33.9283L13.6626 36.1604Z" fill="white"/>
<path d="M36.3637 25.0002C36.3637 27.6261 35.4543 30.171 33.7901 32.2021C32.1259 34.2333 29.8096 35.6255 27.235 36.1419C24.6604 36.6584 21.9864 36.2672 19.6676 35.035C17.3488 33.8028 15.5283 31.8056 14.5156 29.3828C13.5028 26.9601 13.3604 24.2614 14.1125 21.7455C14.8646 19.2296 16.4648 17.0519 18.641 15.5824C20.8173 14.113 23.4353 13.4426 26.0499 13.6852C28.6646 13.9278 31.1145 15.0684 32.9833 16.9131L30.7879 19.1371C29.433 17.7997 27.6568 16.9727 25.7612 16.7968C23.8656 16.621 21.9675 17.107 20.3898 18.1723C18.812 19.2377 17.6519 20.8166 17.1066 22.6406C16.5613 24.4646 16.6646 26.4211 17.3988 28.1776C18.133 29.9341 19.4529 31.3821 21.134 32.2755C22.8152 33.1688 24.7538 33.4524 26.6204 33.078C28.487 32.7035 30.1663 31.6942 31.3729 30.2216C32.5794 28.749 33.2387 26.904 33.2387 25.0002H36.3637Z" fill="white"/>
<path d="M43.8853 32.8565C42.3314 36.5917 39.7047 39.7822 36.3375 42.0246C32.9702 44.2669 29.0137 45.4604 24.9682 45.4541C20.9227 45.4478 16.9699 44.2421 13.6096 41.9893C10.2494 39.7365 7.63264 36.5378 6.09029 32.7978L9.02128 31.5891C10.3246 34.7494 12.5357 37.4522 15.3751 39.3559C18.2145 41.2595 21.5546 42.2784 24.9731 42.2837C28.3916 42.289 31.7349 41.2805 34.5802 39.3857C37.4255 37.4909 39.645 34.7949 40.9581 31.6387L43.8853 32.8565Z" fill="white"/>
<path d="M10.5364 10.536C12.9068 8.16564 15.8235 6.41416 19.0298 5.43572C22.236 4.45727 25.6337 4.28186 28.9237 4.9249C32.2137 5.56795 35.2952 7.00975 37.8971 9.12344C40.499 11.2371 42.5415 13.9579 43.845 17.0464L40.924 18.2791C39.8226 15.6694 38.0967 13.3703 35.898 11.5842C33.6994 9.79818 31.0955 8.57986 28.3155 8.03648C25.5354 7.4931 22.6644 7.64133 19.9551 8.46812C17.2458 9.2949 14.7812 10.7749 12.7783 12.7779L10.5364 10.536Z" fill="white"/>
<path d="M42.6777 42.6777C40.3562 44.9991 37.6002 46.8406 34.5671 48.097C31.5339 49.3534 28.283 50 25 50V46.875C27.8727 46.875 30.7172 46.3092 33.3712 45.2099C36.0252 44.1105 38.4367 42.4992 40.468 40.468L42.6777 42.6777Z" fill="white"/>
<path d="M24.8983 0.00020704C31.5286 -0.0267773 37.8981 2.58124 42.6056 7.25053L40.4049 9.46921C36.2859 5.38359 30.7125 3.10157 24.911 3.12518L24.8983 0.00020704Z" fill="white"/>
<path d="M15.3221 48.0508C12.3069 46.7848 9.56929 44.9396 7.2645 42.6196L9.48144 40.4172C11.4981 42.4471 13.8935 44.0617 16.5318 45.1694L15.3221 48.0508Z" fill="white"/>
<path d="M28.0549 25L35.4546 25L35.4546 28.1796L28.0549 28.1796L28.0549 25Z" fill="white"/>
</svg>
