<svg width="16" height="16" viewBox="0 0 16 16" fill="none" xmlns="http://www.w3.org/2000/svg">
<g clip-path="url(#clip0_298_3414)">
<path d="M8.00001 14.6666C11.6819 14.6666 14.6667 11.6819 14.6667 7.99998C14.6667 4.31808 11.6819 1.33331 8.00001 1.33331C4.31811 1.33331 1.33334 4.31808 1.33334 7.99998C1.33334 11.6819 4.31811 14.6666 8.00001 14.6666Z" stroke="white" stroke-width="1.33333" stroke-linecap="round" stroke-linejoin="round"/>
<path d="M8.00001 10.6666C9.47277 10.6666 10.6667 9.47274 10.6667 7.99998C10.6667 6.52722 9.47277 5.33331 8.00001 5.33331C6.52725 5.33331 5.33334 6.52722 5.33334 7.99998C5.33334 9.47274 6.52725 10.6666 8.00001 10.6666Z" stroke="white" stroke-width="1.33333" stroke-linecap="round" stroke-linejoin="round"/>
<path d="M14.1133 5.33331H8" stroke="white" stroke-width="1.33333" stroke-linecap="round" stroke-linejoin="round"/>
<path d="M2.63333 4.03998L5.69333 9.33331" stroke="white" stroke-width="1.33333" stroke-linecap="round" stroke-linejoin="round"/>
<path d="M7.25333 14.6266L10.3067 9.33331" stroke="white" stroke-width="1.33333" stroke-linecap="round" stroke-linejoin="round"/>
</g>
<defs>
<clipPath id="clip0_298_3414">
<rect width="16" height="16" fill="white"/>
</clipPath>
</defs>
</svg>
