<svg width="50" height="50" viewBox="0 0 50 50" fill="none" xmlns="http://www.w3.org/2000/svg">
<rect width="50" height="50" rx="25" fill="white"/>
<rect x="16" y="15" width="2" height="2" fill="#181818"/>
<rect x="14" y="15" width="2" height="2" fill="#3C3C3C"/>
<rect x="14" y="13" width="2" height="2" fill="#181818"/>
<rect x="12" y="15" width="2" height="2" fill="#181818"/>
<rect x="12" y="13" width="2" height="2" fill="#181818"/>
<rect x="14" y="17" width="2" height="2" fill="#3C3C3C"/>
<rect x="14" y="19" width="2" height="2" fill="#3C3C3C"/>
<rect x="14" y="21" width="2" height="2" fill="#3C3C3C"/>
<rect x="14" y="23" width="2" height="2" fill="#181818"/>
<rect x="14" y="25" width="2" height="2" fill="#3C3C3C"/>
<rect x="14" y="27" width="2" height="2" fill="#3C3C3C"/>
<rect x="14" y="29" width="2" height="2" fill="#181818"/>
<rect x="14" y="31" width="2" height="2" fill="#181818"/>
<rect x="14" y="33" width="2" height="2" fill="#181818"/>
<rect x="14" y="35" width="2" height="2" fill="#181818"/>
<rect x="16" y="17" width="2" height="2" fill="#3C3C3C"/>
<rect x="20" y="17" width="2" height="2" fill="#181818"/>
<rect x="24" y="17" width="2" height="2" fill="#3C3C3C"/>
<rect x="24" y="15" width="2" height="2" fill="#181818"/>
<rect x="16" y="19" width="2" height="2" fill="#3C3C3C"/>
<rect x="20" y="19" width="2" height="2" fill="#3C3C3C"/>
<rect x="24" y="19" width="2" height="2" fill="#3C3C3C"/>
<rect x="16" y="23" width="2" height="2" fill="#3C3C3C"/>
<rect x="20" y="23" width="2" height="2" fill="#3C3C3C"/>
<rect x="24" y="23" width="2" height="2" fill="#3C3C3C"/>
<rect x="16" y="25" width="2" height="2" fill="#3C3C3C"/>
<rect x="20" y="25" width="2" height="2" fill="#3C3C3C"/>
<rect x="24" y="25" width="2" height="2" fill="#3C3C3C"/>
<rect x="16" y="21" width="2" height="2" fill="#3C3C3C"/>
<rect x="20" y="21" width="2" height="2" fill="#3C3C3C"/>
<rect x="24" y="21" width="2" height="2" fill="#3C3C3C"/>
<rect x="16" y="27" width="2" height="2" fill="#3C3C3C"/>
<rect x="16" y="29" width="2" height="2" fill="#181818"/>
<rect x="16" y="33" width="2" height="2" fill="#3C3C3C"/>
<rect x="16" y="31" width="2" height="2" fill="#3C3C3C"/>
<rect x="16" y="35" width="2" height="2" fill="#3C3C3C"/>
<rect x="20" y="27" width="2" height="2" fill="#3C3C3C"/>
<rect x="20" y="33" width="2" height="2" fill="#3C3C3C"/>
<rect x="20" y="29" width="2" height="2" fill="#181818"/>
<rect x="20" y="31" width="2" height="2" fill="#3C3C3C"/>
<rect x="20" y="35" width="2" height="2" fill="#3C3C3C"/>
<rect x="24" y="33" width="2" height="2" fill="#181818"/>
<rect x="24" y="27" width="2" height="2" fill="#3C3C3C"/>
<rect x="24" y="29" width="2" height="2" fill="#181818"/>
<rect x="24" y="31" width="2" height="2" fill="#3C3C3C"/>
<rect x="24" y="35" width="2" height="2" fill="#181818"/>
<rect x="18" y="17" width="2" height="2" fill="#181818"/>
<rect x="26" y="17" width="2" height="2" fill="#3C3C3C"/>
<rect x="28" y="17" width="2" height="2" fill="#181818"/>
<rect x="22" y="17" width="2" height="2" fill="#181818"/>
<rect x="26" y="15" width="2" height="2" fill="#3C3C3C"/>
<rect x="28" y="15" width="2" height="2" fill="#181818"/>
<rect x="26" y="13" width="2" height="2" fill="#181818"/>
<rect x="28" y="13" width="2" height="2" fill="#181818"/>
<rect x="18" y="19" width="2" height="2" fill="#3C3C3C"/>
<rect x="26" y="19" width="2" height="2" fill="#3C3C3C"/>
<rect x="22" y="19" width="2" height="2" fill="#3C3C3C"/>
<rect x="28" y="19" width="2" height="2" fill="#3C3C3C"/>
<rect x="30" y="19" width="2" height="2" fill="#181818"/>
<rect x="26" y="23" width="2" height="2" fill="#3C3C3C"/>
<rect x="18" y="23" width="2" height="2" fill="#3C3C3C"/>
<rect x="22" y="23" width="2" height="2" fill="#181818"/>
<rect x="26" y="25" width="2" height="2" fill="#3C3C3C"/>
<rect x="28" y="23" width="2" height="2" fill="#3C3C3C"/>
<rect x="30" y="23" width="2" height="2" fill="#181818"/>
<rect x="18" y="25" width="2" height="2" fill="#3C3C3C"/>
<rect x="26" y="21" width="2" height="2" fill="#3C3C3C"/>
<rect x="22" y="25" width="2" height="2" fill="#3C3C3C"/>
<rect x="28" y="25" width="2" height="2" fill="#3C3C3C"/>
<rect x="26" y="33" width="2" height="2" fill="#3C3C3C"/>
<rect x="28" y="33" width="2" height="2" fill="#3C3C3C"/>
<rect x="30" y="33" width="2" height="2" fill="#3C3C3C"/>
<rect x="30" y="25" width="2" height="2" fill="#181818"/>
<rect x="26" y="27" width="2" height="2" fill="#181818"/>
<rect x="26" y="31" width="2" height="2" fill="#181818"/>
<rect x="26" y="35" width="2" height="2" fill="#181818"/>
<rect x="26" y="29" width="2" height="2" fill="#3C3C3C"/>
<rect x="28" y="31" width="2" height="2" fill="#3C3C3C"/>
<rect x="30" y="31" width="2" height="2" fill="#3C3C3C"/>
<rect x="32" y="31" width="2" height="2" fill="#181818"/>
<rect x="28" y="35" width="2" height="2" fill="#181818"/>
<rect x="30" y="35" width="2" height="2" fill="#181818"/>
<rect x="18" y="21" width="2" height="2" fill="#3C3C3C"/>
<rect x="22" y="21" width="2" height="2" fill="#3C3C3C"/>
<rect x="18" y="33" width="2" height="2" fill="#3C3C3C"/>
<rect x="28" y="21" width="2" height="2" fill="#3C3C3C"/>
<rect x="30" y="21" width="2" height="2" fill="#181818"/>
<rect x="18" y="27" width="2" height="2" fill="#3C3C3C"/>
<rect x="22" y="33" width="2" height="2" fill="#3C3C3C"/>
<rect x="18" y="29" width="2" height="2" fill="#181818"/>
<rect x="18" y="31" width="2" height="2" fill="#3C3C3C"/>
<rect x="18" y="35" width="2" height="2" fill="#181818"/>
<rect x="22" y="27" width="2" height="2" fill="#3C3C3C"/>
<rect x="22" y="29" width="2" height="2" fill="#181818"/>
<rect x="22" y="31" width="2" height="2" fill="#3C3C3C"/>
<rect x="22" y="35" width="2" height="2" fill="#181818"/>
<rect x="28" y="27" width="2" height="2" fill="#181818"/>
<rect x="28" y="29" width="2" height="2" fill="#3C3C3C"/>
<rect x="30" y="27" width="2" height="2" fill="#181818"/>
<rect x="32" y="33" width="2" height="2" fill="#3C3C3C"/>
<rect x="34" y="33" width="2" height="2" fill="#3C3C3C"/>
<rect x="36" y="33" width="2" height="2" fill="#3C3C3C"/>
<rect x="38" y="33" width="2" height="2" fill="#181818"/>
<rect x="34" y="31" width="2" height="2" fill="#181818"/>
<rect x="36" y="31" width="2" height="2" fill="#3C3C3C"/>
<rect x="36" y="29" width="2" height="2" fill="#181818"/>
<rect x="36" y="27" width="2" height="2" fill="#181818"/>
<rect x="36" y="25" width="2" height="2" fill="#181818"/>
<rect x="38" y="31" width="2" height="2" fill="#3C3C3C"/>
<rect x="38" y="29" width="2" height="2" fill="#3C3C3C"/>
<rect x="38" y="27" width="2" height="2" fill="#3C3C3C"/>
<rect x="38" y="25" width="2" height="2" fill="#181818"/>
<rect x="40" y="31" width="2" height="2" fill="#181818"/>
<rect x="40" y="29" width="2" height="2" fill="#181818"/>
<rect x="40" y="27" width="2" height="2" fill="#181818"/>
<rect x="30" y="29" width="2" height="2" fill="#181818"/>
<rect x="32" y="35" width="2" height="2" fill="#181818"/>
<rect x="34" y="35" width="2" height="2" fill="#181818"/>
<rect x="36" y="35" width="2" height="2" fill="#181818"/>
<rect x="12" y="17" width="2" height="2" fill="#181818"/>
<rect x="12" y="23" width="2" height="2" fill="#3C3C3C"/>
<rect x="12" y="19" width="2" height="2" fill="#3C3C3C"/>
<rect x="12" y="25" width="2" height="2" fill="#3C3C3C"/>
<rect x="12" y="21" width="2" height="2" fill="#3C3C3C"/>
<rect x="10" y="23" width="2" height="2" fill="#181818"/>
<rect x="12" y="27" width="2" height="2" fill="#181818"/>
<rect x="10" y="19" width="2" height="2" fill="#181818"/>
<rect x="10" y="21" width="2" height="2" fill="#181818"/>
<rect x="10" y="25" width="2" height="2" fill="#181818"/>
</svg>
